<svg width="36" height="26" viewBox="0 0 24 24" fill="none" xmlns="http://www.w3.org/2000/svg"><path fill-rule="evenodd" clip-rule="evenodd" d="M10.922.637v7.981c0 1.623-1.299 2.938-2.9 2.938H0C.256 5.596 5.018.82 10.922.637" fill="#074CFF"/><path fill-rule="evenodd" clip-rule="evenodd" d="M10.922 23.343v-7.981c0-1.623-1.299-2.938-2.9-2.938H0c.256 5.96 5.018 10.737 10.922 10.919M11.785.637v7.981c0 1.623 1.299 2.938 2.9 2.938h8.022C22.451 5.596 17.69.82 11.785.637" fill="#3378FF"/><path fill-rule="evenodd" clip-rule="evenodd" d="M11.785 23.343v-7.981c0-1.623 1.299-2.938 2.9-2.938h8.022c-.256 5.96-5.018 10.737-10.922 10.919" fill="#074CFF"/></svg>