<svg width="226" height="24" viewBox="0 0 226 24" fill="none" xmlns="http://www.w3.org/2000/svg">
    <path fill-rule="evenodd" clip-rule="evenodd"
        d="M10.9219 0.637207V8.61837C10.9219 10.2409 9.62349 11.5563 8.02183 11.5563H0C0.255542 5.5954 5.01829 0.818971 10.9219 0.637207Z"
        fill="#074CFF" />
    <path fill-rule="evenodd" clip-rule="evenodd"
        d="M10.9219 23.3429V15.3618C10.9219 13.7392 9.62349 12.4238 8.02183 12.4238H0C0.255542 18.3847 5.01829 23.1611 10.9219 23.3429Z"
        fill="#3378FF" />
    <path fill-rule="evenodd" clip-rule="evenodd"
        d="M11.7852 0.637207V8.61837C11.7852 10.2409 13.0836 11.5563 14.6852 11.5563H22.7071C22.4515 5.5954 17.6888 0.818971 11.7852 0.637207Z"
        fill="#3378FF" />
    <path fill-rule="evenodd" clip-rule="evenodd"
        d="M11.7852 23.3429V15.3618C11.7852 13.7392 13.0836 12.4238 14.6852 12.4238H22.7071C22.4515 18.3847 17.6888 23.1611 11.7852 23.3429Z"
        fill="#074CFF" />
    <path
        d="M32.8611 19.7134V5.92548H36.5863V19.7134H32.8611ZM28.2046 6.37978V3.13156H41.2655V6.37978H28.2046ZM53.6487 19.7134V3.13156H57.3739V19.7134H53.6487ZM42.9273 19.7134V3.13156H46.6526V19.7134H42.9273ZM45.9938 13.0125V9.74157H54.3074V13.0125H45.9938ZM60.4137 19.7134V3.13156H64.048V19.7134H60.4137ZM63.5937 19.7134V16.6242H70.8397V19.7134H63.5937ZM63.5937 12.8308V9.74157H70.3173V12.8308H63.5937ZM63.5937 6.22077V3.13156H70.6807V6.22077H63.5937ZM77.3067 19.7134V3.13156H81.0319V19.7134H77.3067ZM80.5776 19.7134V16.4424H87.5283V19.7134H80.5776ZM89.2914 19.7134V3.13156H92.9258V19.7134H89.2914ZM92.4715 19.7134V16.6242H99.7175V19.7134H92.4715ZM92.4715 12.8308V9.74157H99.1951V12.8308H92.4715ZM92.4715 6.22077V3.13156H99.5585V6.22077H92.4715ZM100.53 19.7134L106.004 3.13156H112.024L117.702 19.7134H113.841L109.252 5.69834L110.433 6.17535H107.503L108.73 5.69834L104.255 19.7134H100.53ZM104.687 15.602L105.822 12.5128H112.319L113.477 15.602H104.687ZM119.184 19.7134V2.99527H122.909V19.7134H119.184ZM129.246 19.7134L124.385 12.5809H128.474L133.562 19.7134H129.246ZM121.909 14.3981V11.4679H125.998C126.543 11.4679 127.013 11.3619 127.406 11.1499C127.815 10.9227 128.126 10.6123 128.338 10.2186C128.565 9.80971 128.678 9.34029 128.678 8.81026C128.678 8.28024 128.565 7.8184 128.338 7.42466C128.126 7.01579 127.815 6.70537 127.406 6.49335C127.013 6.26621 126.543 6.15263 125.998 6.15263H121.909V2.99527H125.703C127.081 2.99527 128.277 3.20729 129.292 3.63129C130.306 4.04015 131.086 4.65345 131.631 5.47119C132.177 6.28892 132.449 7.31867 132.449 8.5604V8.92384C132.449 10.1504 132.169 11.1726 131.609 11.9903C131.064 12.7929 130.283 13.3987 129.269 13.8075C128.27 14.2013 127.081 14.3981 125.703 14.3981H121.909ZM135.094 19.7134V3.13156H141.205L147.451 16.6923H148.224L147.769 17.1012V3.13156H151.267V19.7134H145.112L138.865 6.15263H138.093L138.547 5.74376V19.7134H135.094ZM154.311 19.7134V3.13156H157.945V19.7134H154.311ZM157.491 19.7134V16.6242H164.737V19.7134H157.491ZM157.491 12.8308V9.74157H164.214V12.8308H157.491ZM157.491 6.22077V3.13156H164.578V6.22077H157.491ZM167.116 19.7134V2.99527H170.842V19.7134H167.116ZM177.179 19.7134L172.318 12.5809H176.407L181.495 19.7134H177.179ZM169.842 14.3981V11.4679H173.931C174.476 11.4679 174.945 11.3619 175.339 11.1499C175.748 10.9227 176.058 10.6123 176.271 10.2186C176.498 9.80971 176.611 9.34029 176.611 8.81026C176.611 8.28024 176.498 7.8184 176.271 7.42466C176.058 7.01579 175.748 6.70537 175.339 6.49335C174.945 6.26621 174.476 6.15263 173.931 6.15263H169.842V2.99527H173.636C175.014 2.99527 176.21 3.20729 177.225 3.63129C178.239 4.04015 179.019 4.65345 179.564 5.47119C180.109 6.28892 180.382 7.31867 180.382 8.5604V8.92384C180.382 10.1504 180.102 11.1726 179.541 11.9903C178.996 12.7929 178.216 13.3987 177.202 13.8075C176.202 14.2013 175.014 14.3981 173.636 14.3981H169.842ZM194.725 20.145C193.225 20.145 191.938 19.8875 190.863 19.3727C189.788 18.8426 188.91 18.1536 188.228 17.3056C187.547 16.4424 187.039 15.5187 186.706 14.5344C186.388 13.5349 186.229 12.5658 186.229 11.6269V11.1272C186.229 10.0974 186.396 9.08284 186.729 8.08339C187.062 7.06881 187.569 6.15263 188.251 5.3349C188.947 4.51716 189.818 3.86602 190.863 3.38142C191.923 2.8817 193.172 2.63184 194.611 2.63184C196.11 2.63184 197.435 2.912 198.586 3.47228C199.737 4.03257 200.653 4.81246 201.335 5.81191C202.031 6.79623 202.44 7.95469 202.561 9.28727H198.813C198.707 8.62096 198.465 8.05309 198.086 7.58366C197.708 7.11424 197.215 6.7508 196.61 6.49335C196.019 6.2359 195.353 6.1072 194.611 6.1072C193.869 6.1072 193.21 6.2359 192.635 6.49335C192.059 6.7508 191.575 7.11424 191.181 7.58366C190.803 8.05309 190.507 8.61342 190.295 9.26456C190.098 9.90057 190 10.6123 190 11.3998C190 12.1721 190.098 12.8838 190.295 13.5349C190.507 14.171 190.81 14.7312 191.204 15.2158C191.613 15.6853 192.112 16.0487 192.703 16.3062C193.293 16.5484 193.967 16.6696 194.725 16.6696C195.875 16.6696 196.845 16.3894 197.632 15.8291C198.435 15.2689 198.919 14.4966 199.086 13.5122H202.811C202.675 14.7237 202.266 15.8367 201.584 16.8513C200.918 17.8508 200.002 18.6534 198.836 19.2591C197.685 19.8497 196.315 20.145 194.725 20.145ZM212.551 20.145C211.052 20.145 209.742 19.8875 208.621 19.3727C207.516 18.8426 206.6 18.1536 205.873 17.3056C205.146 16.4424 204.601 15.5111 204.237 14.5117C203.889 13.5122 203.715 12.5506 203.715 11.6269V11.1272C203.715 10.0974 203.897 9.08284 204.26 8.08339C204.639 7.06881 205.199 6.15263 205.941 5.3349C206.683 4.51716 207.607 3.86602 208.712 3.38142C209.818 2.8817 211.097 2.63184 212.551 2.63184C214.005 2.63184 215.285 2.8817 216.39 3.38142C217.496 3.86602 218.419 4.51716 219.161 5.3349C219.903 6.15263 220.464 7.06881 220.842 8.08339C221.221 9.08284 221.41 10.0974 221.41 11.1272V11.6269C221.41 12.5506 221.228 13.5122 220.865 14.5117C220.501 15.5111 219.956 16.4424 219.229 17.3056C218.502 18.1536 217.579 18.8426 216.458 19.3727C215.353 19.8875 214.05 20.145 212.551 20.145ZM212.551 16.6696C213.339 16.6696 214.043 16.5333 214.664 16.2607C215.3 15.9881 215.837 15.6096 216.276 15.125C216.731 14.6404 217.071 14.0801 217.298 13.4441C217.526 12.8081 217.639 12.1266 217.639 11.3998C217.639 10.6274 217.518 9.92329 217.276 9.28727C217.049 8.63613 216.708 8.0758 216.254 7.60638C215.815 7.12178 215.285 6.7508 214.664 6.49335C214.043 6.2359 213.339 6.1072 212.551 6.1072C211.764 6.1072 211.06 6.2359 210.439 6.49335C209.818 6.7508 209.28 7.12178 208.826 7.60638C208.387 8.0758 208.054 8.63613 207.826 9.28727C207.599 9.92329 207.486 10.6274 207.486 11.3998C207.486 12.1266 207.599 12.8081 207.826 13.4441C208.054 14.0801 208.387 14.6404 208.826 15.125C209.28 15.6096 209.818 15.9881 210.439 16.2607C211.06 16.5333 211.764 16.6696 212.551 16.6696ZM222.002 19.7134V15.6474H226V19.7134H222.002Z"
        fill="white" />
</svg>